<svg width="56" height="56" viewBox="0 0 56 56" fill="none" xmlns="http://www.w3.org/2000/svg">
<circle cx="28" cy="28" r="27" stroke="#8FC2B1" stroke-width="2"/>
<path fill-rule="evenodd" clip-rule="evenodd" d="M35.4932 17.7803C36.1813 17.7803 36.7829 17.5273 37.2979 17.0215C37.1566 18.5573 36.2269 19.3639 34.5088 19.4414L34.0713 19.4482V21.0957L34.5566 21.0889C36.0697 21.0251 37.2386 20.5192 38.0635 19.5713C38.8883 18.6234 39.3008 17.32 39.3008 15.6611V14.9297C39.2962 14.1367 39.1527 13.4326 38.8701 12.8174C38.5876 12.2021 38.1911 11.7305 37.6807 11.4023C37.1702 11.0742 36.5869 10.9102 35.9307 10.9102C35.2926 10.9102 34.7184 11.0628 34.208 11.3682C33.6976 11.6689 33.2988 12.0928 33.0117 12.6396C32.7292 13.182 32.5879 13.779 32.5879 14.4307C32.5879 15.4561 32.8522 16.2718 33.3809 16.8779C33.9095 17.4795 34.6136 17.7803 35.4932 17.7803ZM36.7988 16.0234C36.571 16.1875 36.2975 16.2695 35.9785 16.2695C35.5273 16.2695 35.1764 16.0964 34.9258 15.75C34.6797 15.3991 34.5566 14.9525 34.5566 14.4102C34.5566 13.8633 34.6842 13.4098 34.9395 13.0498C35.1947 12.6852 35.5205 12.5029 35.917 12.5029C36.3454 12.5029 36.6872 12.6875 36.9424 13.0566C37.1976 13.4258 37.3252 13.9453 37.3252 14.6152V15.4287C37.2067 15.6611 37.0312 15.8594 36.7988 16.0234ZM26.7433 43.1713C26.9756 44.7885 28.2672 45.9062 29.8936 45.9062C29.9114 45.9062 29.9292 45.9061 29.9471 45.9059C31.5985 45.8811 32.8816 44.7175 33.0674 43.0755L33.5458 38.8213C33.6327 38.0495 33.0774 37.3534 32.3056 37.2667C31.5338 37.1796 30.8377 37.7351 30.751 38.5069L30.2726 42.7602L30.2726 42.7603C30.2624 42.8502 30.2354 43.0887 29.9048 43.0937C29.5771 43.1004 29.5401 42.8609 29.5273 42.7724L26.0981 18.78C25.8711 17.1996 24.5975 16.095 23.0009 16.0938H22.9982C21.403 16.0938 20.1289 17.196 19.8989 18.7786L17.4566 35.9019L17.4566 35.902C17.4451 35.9808 17.4147 36.1898 17.1242 36.2026C16.8432 36.2146 16.7882 36.0225 16.7684 35.9401L15.9798 32.4276L15.9761 32.4115C15.4636 30.2491 13.5418 28.6797 11.4062 28.6797C10.6296 28.6797 10 29.3093 10 30.0859C10 30.8626 10.6296 31.4922 11.4062 31.4922C12.2373 31.4922 13.0234 32.1626 13.2377 33.0529L14.0262 36.5648L14.0299 36.581C14.3853 38.0807 15.7086 39.0805 17.2485 39.0125C18.7882 38.9443 20.0183 37.8315 20.2404 36.3027L22.6828 19.1794L22.6828 19.1794C22.6956 19.0907 22.7224 18.9062 22.9982 18.9062H22.9987C23.2749 18.9064 23.3014 19.0911 23.314 19.1789L26.7433 43.1713ZM41.7983 35.5091L41.7942 35.5258C41.4546 36.8919 40.2603 37.8203 38.865 37.8203C38.8238 37.8203 38.7826 37.8195 38.741 37.8179C37.2929 37.761 36.1151 36.7229 35.8769 35.2934L34.7733 28.5612C34.7718 28.5524 34.7701 28.5451 34.7686 28.5393C34.7518 28.5364 34.7297 28.537 34.713 28.5408C34.7116 28.5474 34.7102 28.556 34.7089 28.5667L34.1135 33.8299C34.0261 34.6017 33.33 35.1566 32.558 35.0692C31.7863 34.9819 31.2314 34.2855 31.3188 33.5137L31.9142 28.2505C32.0781 26.8024 33.2099 25.7643 34.6667 25.7261C36.1242 25.687 37.3084 26.6651 37.548 28.1026L38.6516 34.8347L38.6517 34.8348C38.6623 34.8987 38.6794 35.0008 38.8513 35.0075C39.0162 35.0136 39.046 34.9214 39.0628 34.8552L39.5594 32.7476L39.5635 32.7309C40.147 30.3834 42.2626 28.6797 44.5938 28.6797C45.3704 28.6797 46 29.3093 46 30.0859C46 30.8626 45.3704 31.4922 44.5938 31.4922C43.5561 31.4922 42.5691 32.3127 42.2948 33.4021L41.7983 35.5091Z" fill="#8FC2B1"/>
</svg>
