<svg width="56" height="56" viewBox="0 0 56 56" fill="none" xmlns="http://www.w3.org/2000/svg">
<circle cx="28" cy="28" r="27" stroke="#359CDF" stroke-width="2"/>
<path d="M28 10C18.0742 10 10 18.075 10 28C10 37.925 18.0742 46 28 46C37.9258 46 46 37.925 46 28C46 18.075 37.9258 10 28 10ZM35.2802 34.2197L34.2198 35.2802C33.9269 35.573 33.4521 35.573 33.1591 35.2802L26.9392 29.0602C26.658 28.779 26.5 28.3976 26.5 28V16C26.5 15.5857 26.8358 15.25 27.25 15.25H28.75C29.1642 15.25 29.5 15.5857 29.5 16V27.3789L35.2802 33.159C35.5731 33.452 35.5731 33.9269 35.2802 34.2197Z" fill="#359CDF"/>
</svg>
