<svg width="56" height="56" viewBox="0 0 56 56" fill="none" xmlns="http://www.w3.org/2000/svg">
<circle cx="28" cy="28" r="27" stroke="#8FC2B1" stroke-width="2"/>
<path d="M40.7279 15.2721C37.3282 11.8723 32.8079 10 28 10C23.1921 10 18.6718 11.8723 15.2721 15.2721C11.8723 18.6718 10 23.1921 10 28C10 32.8079 11.8723 37.3282 15.2721 40.7279C18.6718 44.1277 23.1921 46 28 46C32.8079 46 37.3282 44.1277 40.7279 40.7279C44.1277 37.3282 46 32.8079 46 28C46 23.1921 44.1277 18.6718 40.7279 15.2721ZM28 38.1711C22.3275 38.1711 17.7127 33.5563 17.7127 27.8838C17.7127 24.3586 19.4872 21.1179 22.4596 19.2148C22.9485 18.9017 23.5989 19.0439 23.9123 19.5334C24.2254 20.0226 24.0828 20.6729 23.5937 20.9861C21.2283 22.5008 19.816 25.0793 19.816 27.8838C19.816 32.3965 23.4874 36.0678 28 36.0678C32.5126 36.0678 36.184 32.3965 36.184 27.8838C36.184 24.9436 34.5934 22.2141 32.0334 20.7608C31.5283 20.4744 31.3511 19.8322 31.6378 19.3271C31.9246 18.822 32.5667 18.6451 33.0716 18.9319C36.2886 20.7578 38.2873 24.1883 38.2873 27.8838C38.2873 33.5563 33.6725 38.1711 28 38.1711ZM27.6572 16.3484C28.2379 16.3484 28.7089 16.8195 28.7089 17.4001V28.4035C28.7089 28.9844 28.2379 29.4551 27.6572 29.4551C27.0763 29.4551 26.6056 28.9844 26.6056 28.4035V17.4001C26.6056 16.8195 27.0763 16.3484 27.6572 16.3484Z" fill="#8FC2B1"/>
</svg>
