<svg width="56" height="56" viewBox="0 0 56 56" fill="none" xmlns="http://www.w3.org/2000/svg">
<circle cx="28" cy="28" r="27" stroke="#8FC2B1" stroke-width="2"/>
<path fill-rule="evenodd" clip-rule="evenodd" d="M40.9513 32.0402C40.5561 30.4152 39.9535 28.7826 39.3151 27.0536L39.3145 27.052C37.4296 21.945 35.4806 16.6644 39.2047 11.6868L39.2089 11.6803C39.2117 11.6759 39.2145 11.6716 39.2174 11.6678C39.718 10.9675 39.2096 10 38.3602 10H17.2665C16.4016 10 15.9031 10.9914 16.422 11.6868C20.1461 16.6644 18.1971 21.945 16.3122 27.052L16.3116 27.0536C15.6732 28.7826 15.0706 30.4152 14.6755 32.0402C13.8022 35.6289 13.7776 39.411 14.5904 45.0944C14.6642 45.614 15.1093 46 15.6345 46H26.7587V35.8469C26.627 35.7132 26.4833 35.5408 26.318 35.3424L26.3179 35.3424L26.3178 35.3422L26.3178 35.3422C25.7107 34.6138 24.8123 33.536 23.1488 32.7419C22.6222 32.493 22.3944 31.863 22.6433 31.3363C22.8915 30.8097 23.518 30.5833 24.0446 30.8322L24.0587 30.8385C26.0882 31.8078 27.2146 33.1409 27.649 33.6552C27.7241 33.744 27.7785 33.8084 27.8134 33.8423C27.8427 33.8139 27.8912 33.7563 27.9597 33.6751C28.376 33.1814 29.5278 31.8154 31.5547 30.8448L31.5751 30.835C32.0996 30.5826 32.7303 30.8034 32.9827 31.3286C33.2352 31.8538 33.0137 32.4838 32.4891 32.7362L32.4659 32.7475C30.8156 33.5369 29.9016 34.632 29.298 35.3551C29.1351 35.5504 28.9948 35.7185 28.8687 35.8462V46H39.9922C40.5167 46 40.9618 45.614 41.0363 45.0944C41.8484 39.411 41.8238 35.6289 40.9513 32.0402ZM27.8134 24.9062C27.2305 24.9062 26.7587 24.4338 26.7587 23.8516C26.7587 23.2694 27.2305 22.7969 27.8134 22.7969C28.3956 22.7969 28.8681 23.2694 28.8681 23.8516C28.8681 24.4338 28.3956 24.9062 27.8134 24.9062ZM8.04542 28.4558C8.24126 28.5686 8.43651 28.6653 8.62693 28.7525C8.81767 28.8395 9.0035 28.9176 9.18445 28.99L9.21674 29.0029L9.23939 29.0115L9.28394 29.0282C9.31367 29.0387 9.34162 29.05 9.36857 29.0616C9.39634 29.0719 9.42241 29.0831 9.44797 29.0943L9.46444 29.1014C9.48431 29.1098 9.50393 29.1181 9.52247 29.1272C9.61912 29.1713 9.70752 29.2166 9.79678 29.2769C9.88547 29.3369 9.97374 29.414 10.0562 29.5057C10.1386 29.5969 10.2139 29.7011 10.2797 29.8042L10.2978 29.8331C10.324 29.875 10.35 29.9165 10.3713 29.9567C10.3999 30.0063 10.426 30.0541 10.4484 30.0985C10.4855 30.1681 10.5152 30.2296 10.5389 30.2789L10.5576 30.3176L10.5873 30.3804L10.5972 30.4026L10.6168 30.3884C10.6296 30.3789 10.6487 30.3644 10.6709 30.344C10.7168 30.3036 10.7772 30.2403 10.8439 30.1503C10.8759 30.1052 10.9097 30.0534 10.9427 29.9943C10.9733 29.9351 11.0075 29.8688 11.0349 29.7945C11.0907 29.6462 11.1341 29.4658 11.1395 29.2549C11.1453 29.0449 11.1101 28.8027 11.0121 28.5558C10.9152 28.3095 10.7527 28.0632 10.5452 27.86C10.4932 27.8094 10.4392 27.761 10.3832 27.7147C10.3266 27.67 10.2686 27.6267 10.2094 27.5863C10.1495 27.547 10.0886 27.5098 10.0271 27.4753C9.99628 27.4579 9.96492 27.4416 9.93377 27.4261L9.88665 27.4029L9.8486 27.385C9.6536 27.2936 9.45458 27.2125 9.26061 27.14C8.99655 27.0416 8.74099 26.9606 8.51313 26.8884L8.5131 26.8883L8.513 26.8883L8.51271 26.8882C8.40551 26.8542 8.30445 26.8222 8.21153 26.7912C8.06504 26.7432 7.93955 26.6985 7.82875 26.6506C7.71845 26.6025 7.61967 26.5491 7.5278 26.4763C7.43573 26.4044 7.35389 26.3133 7.2815 26.2185C7.24775 26.1707 7.21434 26.1227 7.18482 26.0758C7.15643 26.0288 7.12904 25.9834 7.10516 25.9411C7.07042 25.8789 7.04135 25.8236 7.01785 25.7788L7.01782 25.7788L6.99444 25.7345L6.9531 25.657C6.9531 25.657 6.93427 25.6806 6.90165 25.727C6.87095 25.7738 6.8259 25.8434 6.78256 25.9394C6.76068 25.9874 6.73752 26.0421 6.71838 26.1039C6.69796 26.1657 6.67935 26.235 6.66659 26.3117C6.63884 26.4653 6.6317 26.6528 6.67366 26.864C6.71423 27.0745 6.8107 27.3048 6.95282 27.5126C7.09422 27.7211 7.2745 27.9049 7.4626 28.0595C7.65166 28.2148 7.84963 28.3428 8.04542 28.4558ZM10.6435 26.7848C10.4531 26.6976 10.2579 26.6009 10.062 26.4881C9.86626 26.375 9.66829 26.247 9.47923 26.0917C9.2911 25.9372 9.11081 25.7534 8.96941 25.5449C8.8273 25.3371 8.73083 25.1068 8.69025 24.8963C8.64829 24.6851 8.65544 24.4976 8.68318 24.344C8.69595 24.2673 8.71455 24.198 8.73497 24.1362C8.75411 24.0744 8.77727 24.0197 8.79919 23.9717C8.84252 23.8757 8.88758 23.8061 8.91828 23.7593C8.9509 23.7129 8.96973 23.6892 8.96973 23.6892L9.011 23.7668L9.03437 23.8111C9.05788 23.8558 9.08696 23.9112 9.12172 23.9734C9.14559 24.0157 9.17299 24.0612 9.20137 24.1081C9.2309 24.155 9.2643 24.203 9.29806 24.2508C9.37045 24.3456 9.45229 24.4368 9.54436 24.5086C9.63622 24.5814 9.73497 24.6348 9.84531 24.6829C9.95611 24.7309 10.0816 24.7756 10.2281 24.8235C10.3211 24.8546 10.4223 24.8867 10.5297 24.9207C10.7575 24.9929 11.0131 25.074 11.2772 25.1724C11.4711 25.2448 11.6702 25.326 11.8652 25.4173L11.9032 25.4352L11.9503 25.4585C11.9815 25.4739 12.0128 25.4902 12.0436 25.5077C12.1051 25.5421 12.1661 25.5794 12.226 25.6187C12.2851 25.659 12.3432 25.7024 12.3998 25.747C12.4558 25.7933 12.5098 25.8417 12.5618 25.8923C12.7693 26.0956 12.9317 26.3418 13.0287 26.5882C13.1266 26.835 13.1619 27.0772 13.156 27.2872C13.1507 27.4982 13.1072 27.6785 13.0515 27.8269C13.024 27.9011 12.9898 27.9674 12.9592 28.0267C12.9263 28.0857 12.8924 28.1375 12.8604 28.1827C12.7937 28.2726 12.7333 28.3359 12.6874 28.3763C12.6653 28.3967 12.6462 28.4112 12.6334 28.4208L12.6138 28.4349L12.6038 28.4127L12.5742 28.3499L12.5564 28.3131L12.5563 28.313C12.5325 28.2635 12.5025 28.2013 12.465 28.1309C12.4426 28.0865 12.4164 28.0387 12.3879 27.9891C12.3665 27.9489 12.3405 27.9073 12.3143 27.8655L12.2963 27.8366C12.2305 27.7334 12.1552 27.6292 12.0727 27.538C11.9903 27.4463 11.902 27.3693 11.8133 27.3092C11.7241 27.2489 11.6357 27.2037 11.539 27.1596C11.5205 27.1504 11.5009 27.1421 11.481 27.1337L11.4645 27.1267C11.439 27.1154 11.4129 27.1042 11.3851 27.0939C11.3582 27.0824 11.3302 27.071 11.3005 27.0605L11.2559 27.0438L11.2333 27.0352L11.201 27.0223C11.0201 26.9499 10.8342 26.8718 10.6435 26.7848ZM12.0788 24.5202C12.2746 24.6331 12.4699 24.7297 12.6603 24.8169C12.8511 24.9039 13.0369 24.982 13.2178 25.0544L13.2501 25.0673L13.2728 25.0759L13.3173 25.0926C13.3471 25.1031 13.375 25.1145 13.402 25.126C13.4297 25.1364 13.4558 25.1475 13.4814 25.1588L13.4978 25.1658C13.5177 25.1742 13.5373 25.1826 13.5559 25.1917C13.6525 25.2358 13.7409 25.281 13.8302 25.3414C13.9189 25.4014 14.0072 25.4785 14.0895 25.5701C14.172 25.6614 14.2473 25.7656 14.3131 25.8687L14.3312 25.8976C14.3574 25.9395 14.3834 25.981 14.4047 26.0212C14.4332 26.0708 14.4594 26.1186 14.4818 26.163C14.5189 26.2326 14.5485 26.2941 14.5723 26.3433L14.591 26.3821L14.6207 26.4448L14.6306 26.467L14.6502 26.4529C14.663 26.4433 14.6821 26.4289 14.7042 26.4085C14.7502 26.3681 14.8105 26.3047 14.8773 26.2148C14.9093 26.1696 14.9431 26.1178 14.9761 26.0588C15.0066 25.9995 15.0409 25.9332 15.0683 25.859C15.1241 25.7106 15.1675 25.5303 15.1729 25.3193C15.1787 25.1093 15.1435 24.8672 15.0455 24.6203C14.9486 24.3739 14.7861 24.1277 14.5786 23.9244C14.5266 23.8739 14.4726 23.8254 14.4166 23.7792C14.36 23.7345 14.302 23.6912 14.2428 23.6508C14.1829 23.6115 14.122 23.5743 14.0605 23.5398C14.0297 23.5223 13.9983 23.506 13.9672 23.4906L13.92 23.4673L13.882 23.4495C13.687 23.3581 13.488 23.2769 13.294 23.2045C13.0299 23.1061 12.7744 23.0251 12.5466 22.9528L12.5465 22.9528C12.4392 22.9188 12.338 22.8867 12.2449 22.8557C12.0985 22.8077 11.9729 22.763 11.8621 22.7151C11.7518 22.6669 11.653 22.6136 11.5612 22.5407C11.4691 22.4689 11.3873 22.3778 11.3149 22.283C11.2811 22.2351 11.2477 22.1871 11.2182 22.1402C11.1898 22.0933 11.1624 22.0479 11.1386 22.0055C11.1038 21.9433 11.0747 21.8879 11.0512 21.8432L11.0278 21.7989L10.9865 21.7214C10.9865 21.7214 10.9677 21.7451 10.935 21.7915C10.9043 21.8382 10.8593 21.9079 10.8159 22.0039C10.794 22.0519 10.7709 22.1066 10.7517 22.1684C10.7313 22.2302 10.7127 22.2995 10.6999 22.3763C10.6722 22.5299 10.665 22.7173 10.707 22.9285C10.7476 23.139 10.844 23.3694 10.9861 23.5771C11.1275 23.7856 11.3078 23.9695 11.496 24.124C11.685 24.2792 11.883 24.4072 12.0788 24.5202ZM43.0946 23.6269C43.1818 23.4365 43.2785 23.2413 43.3913 23.0454C43.5043 22.8496 43.6323 22.6517 43.7876 22.4626C43.9422 22.2745 44.126 22.0942 44.3345 21.9528C44.5423 21.8107 44.7726 21.7143 44.9831 21.6737C45.1943 21.6317 45.3818 21.6389 45.5354 21.6666C45.6121 21.6794 45.6814 21.698 45.7432 21.7184C45.805 21.7375 45.8597 21.7607 45.9077 21.7826C46.0037 21.8259 46.0733 21.871 46.1201 21.9017C46.1665 21.9343 46.1901 21.9531 46.1901 21.9531L46.1126 21.9945L46.0683 22.0178C46.0236 22.0413 45.9683 22.0704 45.906 22.1052C45.8637 22.1291 45.8183 22.1564 45.7713 22.1848C45.7244 22.2144 45.6764 22.2478 45.6286 22.2815C45.5338 22.3539 45.4427 22.4358 45.3708 22.5278C45.298 22.6197 45.2446 22.7185 45.1965 22.8288C45.1486 22.9396 45.1039 23.0651 45.0559 23.2115C45.0249 23.3046 44.9928 23.4058 44.9588 23.5132C44.8865 23.741 44.8055 23.9966 44.7071 24.2606C44.6346 24.4546 44.5535 24.6536 44.4621 24.8486L44.4442 24.8867L44.421 24.9338C44.4055 24.9649 44.3893 24.9963 44.3718 25.0271C44.3373 25.0886 44.3001 25.1496 44.2608 25.2094C44.2204 25.2686 44.1771 25.3267 44.1324 25.3832C44.0861 25.4392 44.0377 25.4932 43.9871 25.5452C43.7839 25.7527 43.5377 25.9152 43.2913 26.0121C43.0444 26.1101 42.8023 26.1453 42.5922 26.1395C42.3813 26.1341 42.2009 26.0907 42.0526 26.0349C41.9783 26.0075 41.912 25.9733 41.8528 25.9427C41.7937 25.9097 41.7419 25.8759 41.6968 25.8439C41.6068 25.7772 41.5435 25.7168 41.5031 25.6709C41.4827 25.6487 41.4682 25.6296 41.4587 25.6168L41.4445 25.5973L41.4668 25.5873L41.5295 25.5576L41.5683 25.5389C41.6175 25.5152 41.679 25.4855 41.7486 25.4484C41.793 25.4261 41.8408 25.3999 41.8904 25.3713C41.9306 25.35 41.9721 25.324 42.014 25.2978L42.0429 25.2798C42.146 25.214 42.2502 25.1387 42.3414 25.0562C42.4331 24.9738 42.5102 24.8855 42.5702 24.7968C42.6305 24.7075 42.6758 24.6191 42.7199 24.5225C42.729 24.504 42.7373 24.4844 42.7457 24.4645L42.7528 24.448C42.764 24.4224 42.7752 24.3964 42.7855 24.3686C42.7971 24.3416 42.8084 24.3137 42.8189 24.284L42.8357 24.2394L42.8442 24.2168L42.8571 24.1845C42.9295 24.0035 43.0076 23.8177 43.0946 23.6269ZM45.359 25.062C45.2461 25.2579 45.1495 25.4531 45.0622 25.6435C44.9752 25.8342 44.8971 26.0201 44.8247 26.201L44.8118 26.2333L44.8033 26.256L44.7865 26.3005C44.7761 26.3302 44.7647 26.3582 44.7531 26.3851C44.7428 26.4129 44.7317 26.439 44.7204 26.4645C44.718 26.47 44.7157 26.4755 44.7134 26.4809C44.705 26.5008 44.6966 26.5205 44.6875 26.539C44.6434 26.6357 44.5982 26.7241 44.5378 26.8134C44.4778 26.902 44.4007 26.9904 44.309 27.0727C44.2178 27.1552 44.1136 27.2305 44.0105 27.2963L43.9816 27.3143L43.9815 27.3144C43.9397 27.3406 43.8982 27.3666 43.858 27.3879C43.8084 27.4164 43.7606 27.4426 43.7162 27.465C43.6457 27.5026 43.5835 27.5325 43.534 27.5564L43.4971 27.5742L43.4344 27.6039L43.4121 27.6138L43.4263 27.6334C43.4358 27.6462 43.4503 27.6653 43.4707 27.6874C43.5111 27.7334 43.5744 27.7937 43.6644 27.8605C43.7095 27.8924 43.7613 27.9263 43.8204 27.9592C43.8796 27.9898 43.9459 28.024 44.0202 28.0515C44.1685 28.1073 44.3489 28.1507 44.5598 28.1561C44.7699 28.1619 45.012 28.1267 45.2589 28.0287C45.5053 27.9318 45.7515 27.7693 45.9547 27.5618C46.0053 27.5098 46.0537 27.4558 46.1 27.3998C46.1447 27.3432 46.188 27.2851 46.2284 27.226C46.2677 27.1661 46.3049 27.1052 46.3394 27.0436C46.3569 27.0129 46.3731 26.9815 46.3886 26.9503L46.4118 26.9032L46.4297 26.8652C46.5211 26.6702 46.6023 26.4712 46.6747 26.2772C46.7731 26.0131 46.8541 25.7576 46.9263 25.5297L46.9263 25.5297C46.9604 25.4224 46.9925 25.3212 47.0235 25.2281C47.0715 25.0816 47.1162 24.9561 47.1641 24.8453C47.2122 24.735 47.2656 24.6362 47.3384 24.5444C47.4103 24.4523 47.5014 24.3705 47.5962 24.2981C47.644 24.2643 47.6921 24.2309 47.739 24.2014C47.7859 24.173 47.8313 24.1456 47.8736 24.1217C47.9358 24.087 47.9911 24.0579 48.0358 24.0344L48.036 24.0344L48.0802 24.011L48.1578 23.9697C48.1578 23.9697 48.1342 23.9509 48.0877 23.9183C48.041 23.8876 47.9714 23.8425 47.8753 23.7992C47.8273 23.7773 47.7727 23.7541 47.7109 23.735C47.649 23.7146 47.5797 23.696 47.503 23.6832C47.3494 23.6555 47.1619 23.6483 46.9508 23.6903C46.7403 23.7308 46.5099 23.8273 46.3021 23.9694C46.0937 24.1108 45.9098 24.2911 45.7553 24.4792C45.6 24.6683 45.472 24.8663 45.359 25.062ZM47.0302 27.6604C47.1175 27.47 47.2141 27.2747 47.3269 27.0789C47.4399 26.8831 47.568 26.6851 47.7232 26.496C47.8777 26.3079 48.0616 26.1276 48.27 25.9862C48.4778 25.8441 48.7082 25.7476 48.9187 25.7071C49.1298 25.6651 49.3173 25.6722 49.4709 25.7C49.5477 25.7128 49.617 25.7314 49.6788 25.7518C49.7406 25.7709 49.7953 25.7941 49.8433 25.816C49.9393 25.8594 50.0089 25.9044 50.0557 25.9351C50.1021 25.9677 50.1257 25.9866 50.1257 25.9866L50.0482 26.0279C50.035 26.035 50.0202 26.0428 50.0039 26.0513C49.9592 26.0748 49.9039 26.1039 49.8416 26.1386C49.7993 26.1625 49.7539 26.1899 49.707 26.2183C49.6601 26.2478 49.612 26.2812 49.5642 26.315C49.4694 26.3874 49.3783 26.4692 49.3064 26.5613C49.2336 26.6531 49.1802 26.7519 49.1321 26.8622C49.0842 26.973 49.0395 27.0985 48.9915 27.245C48.9605 27.3381 48.9284 27.4393 48.8944 27.5466C48.8221 27.7745 48.7411 28.03 48.6427 28.2941C48.5703 28.488 48.4891 28.6871 48.3977 28.8821L48.3798 28.9201L48.3566 28.9672C48.3412 28.9984 48.3249 29.0297 48.3074 29.0605C48.2729 29.1221 48.2357 29.183 48.1964 29.2429C48.156 29.302 48.1127 29.3601 48.068 29.4167C48.0217 29.4727 47.9733 29.5267 47.9227 29.5787C47.7195 29.7862 47.4733 29.9486 47.2269 30.0456C46.98 30.1436 46.7379 30.1788 46.5278 30.173C46.3169 30.1676 46.1365 30.1241 45.9882 30.0684C45.914 30.0409 45.8476 30.0067 45.7884 29.9761C45.7293 29.9432 45.6775 29.9093 45.6324 29.8774C45.5424 29.8106 45.4791 29.7502 45.4387 29.7043C45.4183 29.6822 45.4038 29.6631 45.3943 29.6503L45.3801 29.6307L45.4024 29.6208L45.4651 29.5911C45.477 29.5853 45.4899 29.5791 45.5038 29.5724C45.5531 29.5486 45.6146 29.519 45.6842 29.4819C45.7286 29.4595 45.7764 29.4333 45.826 29.4048C45.8662 29.3834 45.9077 29.3575 45.9496 29.3313C45.9592 29.3252 45.9688 29.3192 45.9785 29.3132C46.0816 29.2474 46.1858 29.1721 46.277 29.0896C46.3687 29.0072 46.4458 28.9189 46.5058 28.8302C46.5662 28.741 46.6114 28.6526 46.6555 28.5559C46.6671 28.5323 46.6775 28.5069 46.6884 28.4814C46.6997 28.4559 46.7108 28.4298 46.7211 28.402C46.7327 28.3751 46.7441 28.3471 46.7545 28.3174L46.7713 28.2729L46.7798 28.2502L46.7927 28.2179C46.8651 28.037 46.9432 27.8511 47.0302 27.6604Z" fill="#8FC2B1"/>
</svg>
