<svg width="56" height="56" viewBox="0 0 56 56" fill="none" xmlns="http://www.w3.org/2000/svg">
<circle cx="28" cy="28" r="27" stroke="#359CDF" stroke-width="2"/>
<path d="M24.3913 16H22.4783V13C22.4783 12.448 22.0497 12 21.5217 12H15.7826C15.2546 12 14.8261 12.448 14.8261 13V16H12.913C11.859 16 11 16.898 11 18V42C11 43.122 11.8398 44 12.913 44H24.3913C25.4645 44 26.3043 43.122 26.3043 42V18C26.3043 16.878 25.4645 16 24.3913 16ZM18.6522 38V32H14.8261L18.6522 22V28H22.4783L18.6522 38Z" fill="#359CDF"/>
<path fill-rule="evenodd" clip-rule="evenodd" d="M35.0887 12.1732C34.8863 12.3211 34.8729 12.5106 34.8424 15.6468L34.8102 18.964H38.8996H42.9889L42.9567 15.6468C42.9262 12.5106 42.9128 12.3211 42.7104 12.1732C42.3944 11.9423 35.4047 11.9423 35.0887 12.1732ZM33.3601 19.7268L33 20.0486V25.6354V31.2222L33.3601 31.544L33.7203 31.8658H38.8996H44.0788L44.439 31.544L44.7991 31.2222V25.6354V20.0486L44.439 19.7268L44.0788 19.405H38.8996H33.7203L33.3601 19.7268ZM37.0249 35.4047V33.8559V32.3069H38.8996H40.7742V33.8559V35.4047L40.444 35.5926L40.114 35.7804L40.1132 39.6675C40.1132 39.9246 40.1134 40.1665 40.1136 40.394V40.3941V40.3942C40.1156 42.9151 40.1163 43.6785 39.7677 43.9053C39.6163 44.0039 39.3991 44.0012 39.0875 43.9973C39.0227 43.9965 38.9539 43.9957 38.8807 43.9957C38.8001 43.9957 38.7249 43.9969 38.6547 43.9981H38.6547C38.3628 44.0028 38.1585 44.0061 38.0155 43.9141C37.6819 43.6993 37.6827 42.9651 37.6854 40.5173C37.6857 40.2653 37.6859 39.9952 37.6859 39.7056L37.6851 35.7804L37.3551 35.5926L37.0249 35.4047ZM37.9071 16.3175V15.7662V15.2148H37.0801H36.253V15.7662V16.3175H37.0801H37.9071ZM41.5461 16.3175V15.7662V15.2148H40.7191H39.892V15.7662V16.3175H40.7191H41.5461ZM39.9625 21.0043C39.8577 21.2772 39.0098 24.8218 39.0098 24.9867C39.0098 25.1081 39.2705 25.1396 40.2779 25.1396C40.9754 25.1396 41.5461 25.1669 41.5461 25.2002C41.5461 25.3583 37.8483 30.4221 37.8232 30.2985C37.8073 30.2207 37.9863 29.2886 38.2209 28.2272L38.6475 26.2974L37.405 26.2664L36.1627 26.2354L37.9998 23.5426C39.6213 21.1658 40.1756 20.4488 39.9625 21.0043Z" fill="#359CDF"/>
</svg>
