<svg width="56" height="56" viewBox="0 0 56 56" fill="none" xmlns="http://www.w3.org/2000/svg">
<circle cx="28" cy="28" r="27" stroke="#359CDF" stroke-width="2"/>
<path fill-rule="evenodd" clip-rule="evenodd" d="M40.9513 32.0402C40.5562 30.4152 39.9536 28.7826 39.3151 27.0536L39.3146 27.052C37.4297 21.945 35.4807 16.6644 39.2048 11.6868L39.209 11.6803C39.2118 11.6759 39.2146 11.6716 39.2174 11.6678C39.718 10.9675 39.2097 10 38.3603 10H17.2666C16.4017 10 15.9032 10.9914 16.4221 11.6868C20.1462 16.6644 18.1972 21.945 16.3123 27.052L16.3117 27.0536C15.6733 28.7826 15.0707 30.4152 14.6755 32.0402C13.8023 35.6289 13.7776 39.411 14.5905 45.0944C14.6643 45.614 15.1094 46 15.6346 46H26.7587V35.8469C26.6271 35.7132 26.4833 35.5408 26.318 35.3424L26.318 35.3424L26.3179 35.3422L26.3178 35.3422C25.7107 34.6138 24.8124 33.536 23.1489 32.7419C22.6223 32.493 22.3944 31.863 22.6433 31.3363C22.8916 30.8097 23.518 30.5833 24.0447 30.8322L24.0587 30.8385C26.0882 31.8078 27.2146 33.1409 27.6491 33.6552C27.7242 33.744 27.7786 33.8084 27.8134 33.8423C27.8427 33.8139 27.8913 33.7563 27.9597 33.6751C28.3761 33.1814 29.5279 31.8154 31.5548 30.8448L31.5751 30.835C32.0997 30.5826 32.7304 30.8034 32.9828 31.3286C33.2352 31.8538 33.0137 32.4838 32.4892 32.7362L32.466 32.7475C30.8156 33.5369 29.9016 34.632 29.2981 35.3551C29.1351 35.5504 28.9948 35.7185 28.8687 35.8462V46H39.9923C40.5168 46 40.9619 45.614 41.0364 45.0944C41.8485 39.411 41.8239 35.6289 40.9513 32.0402ZM27.8134 24.9062C27.2305 24.9062 26.7587 24.4338 26.7587 23.8516C26.7587 23.2694 27.2305 22.7969 27.8134 22.7969C28.3956 22.7969 28.8681 23.2694 28.8681 23.8516C28.8681 24.4338 28.3956 24.9062 27.8134 24.9062ZM8.04549 28.4558C8.24132 28.5686 8.43657 28.6653 8.62699 28.7525C8.81773 28.8395 9.00356 28.9176 9.18451 28.99L9.2168 29.0029L9.23945 29.0115L9.284 29.0282C9.31373 29.0387 9.34168 29.05 9.36863 29.0616C9.3964 29.0719 9.42247 29.0831 9.44803 29.0943L9.4645 29.1014C9.48437 29.1098 9.50399 29.1181 9.52253 29.1272C9.61918 29.1713 9.70758 29.2166 9.79684 29.2769C9.88553 29.3369 9.9738 29.414 10.0562 29.5057C10.1387 29.5969 10.214 29.7011 10.2798 29.8042L10.2978 29.8331C10.324 29.875 10.35 29.9165 10.3714 29.9567C10.3999 30.0063 10.4261 30.0541 10.4485 30.0985C10.4856 30.1681 10.5152 30.2296 10.5389 30.2789L10.5577 30.3176L10.5873 30.3804L10.5973 30.4026L10.6169 30.3884C10.6297 30.3789 10.6488 30.3644 10.6709 30.344C10.7168 30.3036 10.7772 30.2403 10.8439 30.1503C10.8759 30.1052 10.9098 30.0534 10.9427 29.9943C10.9733 29.9351 11.0075 29.8688 11.035 29.7945C11.0907 29.6462 11.1342 29.4658 11.1395 29.2549C11.1454 29.0449 11.1102 28.8027 11.0122 28.5558C10.9152 28.3095 10.7528 28.0632 10.5453 27.86C10.4933 27.8094 10.4393 27.761 10.3833 27.7147C10.3267 27.67 10.2686 27.6267 10.2095 27.5863C10.1496 27.547 10.0887 27.5098 10.0271 27.4753C9.99634 27.4579 9.96498 27.4416 9.93383 27.4261L9.88671 27.4029L9.84866 27.385C9.65366 27.2936 9.45464 27.2125 9.26067 27.14C8.99661 27.0416 8.74105 26.9606 8.51319 26.8884L8.51316 26.8883L8.51307 26.8883L8.51277 26.8882C8.40558 26.8542 8.30452 26.8222 8.21159 26.7912C8.0651 26.7432 7.93961 26.6985 7.82881 26.6506C7.71851 26.6025 7.61973 26.5491 7.52787 26.4763C7.43579 26.4044 7.35395 26.3133 7.28157 26.2185C7.24781 26.1707 7.21441 26.1227 7.18488 26.0758C7.15649 26.0288 7.1291 25.9834 7.10522 25.9411C7.07048 25.8789 7.04141 25.8236 7.01791 25.7788L7.01788 25.7788L6.99451 25.7345L6.95316 25.657C6.95316 25.657 6.93433 25.6806 6.90171 25.727C6.87101 25.7738 6.82596 25.8434 6.78262 25.9394C6.76074 25.9874 6.73758 26.0421 6.71844 26.1039C6.69802 26.1657 6.67942 26.235 6.66665 26.3117C6.6389 26.4653 6.63176 26.6528 6.67372 26.864C6.71429 27.0745 6.81076 27.3048 6.95288 27.5126C7.09428 27.7211 7.27457 27.9049 7.46266 28.0595C7.65172 28.2148 7.84969 28.3428 8.04549 28.4558ZM10.6436 26.7848C10.4532 26.6976 10.2579 26.6009 10.0621 26.4881C9.86632 26.375 9.66835 26.247 9.47929 26.0917C9.29116 25.9372 9.11087 25.7534 8.96947 25.5449C8.82736 25.3371 8.73089 25.1068 8.69031 24.8963C8.64835 24.6851 8.6555 24.4976 8.68324 24.344C8.69601 24.2673 8.71461 24.198 8.73503 24.1362C8.75417 24.0744 8.77733 24.0197 8.79925 23.9717C8.84258 23.8757 8.88764 23.8061 8.91834 23.7593C8.95096 23.7129 8.96979 23.6892 8.96979 23.6892L9.01106 23.7668L9.03443 23.8111C9.05794 23.8558 9.08702 23.9112 9.12178 23.9734C9.14565 24.0157 9.17305 24.0612 9.20144 24.1081C9.23096 24.155 9.26436 24.203 9.29812 24.2508C9.37051 24.3456 9.45235 24.4368 9.54442 24.5086C9.63628 24.5814 9.73503 24.6348 9.84537 24.6829C9.95617 24.7309 10.0817 24.7756 10.2281 24.8235C10.3212 24.8546 10.4224 24.8867 10.5298 24.9207C10.7576 24.9929 11.0131 25.074 11.2772 25.1724C11.4712 25.2448 11.6702 25.326 11.8652 25.4173L11.9033 25.4352L11.9504 25.4585C11.9815 25.4739 12.0129 25.4902 12.0437 25.5077C12.1052 25.5421 12.1662 25.5794 12.226 25.6187C12.2852 25.659 12.3433 25.7024 12.3998 25.747C12.4558 25.7933 12.5098 25.8417 12.5618 25.8923C12.7693 26.0956 12.9318 26.3418 13.0287 26.5882C13.1267 26.835 13.1619 27.0772 13.1561 27.2872C13.1507 27.4982 13.1073 27.6785 13.0515 27.8269C13.0241 27.9011 12.9899 27.9674 12.9593 28.0267C12.9263 28.0857 12.8925 28.1375 12.8605 28.1827C12.7938 28.2726 12.7334 28.3359 12.6875 28.3763C12.6653 28.3967 12.6462 28.4112 12.6334 28.4208L12.6139 28.4349L12.6039 28.4127L12.5742 28.3499L12.5564 28.3131L12.5564 28.313C12.5325 28.2635 12.5026 28.2013 12.465 28.1309C12.4427 28.0865 12.4165 28.0387 12.3879 27.9891C12.3666 27.9489 12.3406 27.9073 12.3144 27.8655L12.2964 27.8366C12.2306 27.7334 12.1553 27.6292 12.0728 27.538C11.9904 27.4463 11.9021 27.3693 11.8134 27.3092C11.7241 27.2489 11.6357 27.2037 11.5391 27.1596C11.5206 27.1504 11.5009 27.1421 11.4811 27.1337L11.4646 27.1267C11.439 27.1154 11.413 27.1042 11.3852 27.0939C11.3582 27.0824 11.3303 27.071 11.3006 27.0605L11.256 27.0438L11.2334 27.0352L11.2011 27.0223C11.0201 26.9499 10.8343 26.8718 10.6436 26.7848ZM12.0789 24.5202C12.2747 24.6331 12.47 24.7297 12.6604 24.8169C12.8511 24.9039 13.0369 24.982 13.2179 25.0544L13.2502 25.0673L13.2728 25.0759L13.3174 25.0926C13.3471 25.1031 13.3751 25.1145 13.402 25.126C13.4298 25.1364 13.4559 25.1475 13.4814 25.1588L13.4979 25.1658C13.5178 25.1742 13.5374 25.1826 13.5559 25.1917C13.6526 25.2358 13.741 25.281 13.8302 25.3414C13.9189 25.4014 14.0072 25.4785 14.0896 25.5701C14.1721 25.6614 14.2474 25.7656 14.3132 25.8687L14.3312 25.8976C14.3574 25.9395 14.3834 25.981 14.4048 26.0212C14.4333 26.0708 14.4595 26.1186 14.4819 26.163C14.519 26.2326 14.5486 26.2941 14.5723 26.3433L14.5911 26.3821L14.6207 26.4448L14.6307 26.467L14.6502 26.4529C14.6631 26.4433 14.6822 26.4289 14.7043 26.4085C14.7502 26.3681 14.8106 26.3047 14.8773 26.2148C14.9093 26.1696 14.9431 26.1178 14.9761 26.0588C15.0067 25.9995 15.0409 25.9332 15.0684 25.859C15.1241 25.7106 15.1676 25.5303 15.1729 25.3193C15.1788 25.1093 15.1435 24.8672 15.0456 24.6203C14.9486 24.3739 14.7862 24.1277 14.5787 23.9244C14.5266 23.8739 14.4727 23.8254 14.4167 23.7792C14.3601 23.7345 14.302 23.6912 14.2428 23.6508C14.183 23.6115 14.122 23.5743 14.0605 23.5398C14.0297 23.5223 13.9984 23.506 13.9672 23.4906L13.9201 23.4673L13.8821 23.4495C13.687 23.3581 13.488 23.2769 13.2941 23.2045C13.03 23.1061 12.7745 23.0251 12.5466 22.9528L12.5466 22.9528C12.4392 22.9188 12.338 22.8867 12.245 22.8557C12.0985 22.8077 11.973 22.763 11.8622 22.7151C11.7519 22.6669 11.6531 22.6136 11.5613 22.5407C11.4692 22.4689 11.3873 22.3778 11.315 22.283C11.2812 22.2351 11.2478 22.1871 11.2183 22.1402C11.1899 22.0933 11.1625 22.0479 11.1386 22.0055C11.1039 21.9433 11.0748 21.8879 11.0513 21.8432L11.0279 21.7989L10.9866 21.7214C10.9866 21.7214 10.9677 21.7451 10.9351 21.7915C10.9044 21.8382 10.8593 21.9079 10.816 22.0039C10.7941 22.0519 10.7709 22.1066 10.7518 22.1684C10.7314 22.2302 10.7128 22.2995 10.7 22.3763C10.6722 22.5299 10.6651 22.7173 10.707 22.9285C10.7476 23.139 10.8441 23.3694 10.9862 23.5771C11.1276 23.7856 11.3079 23.9695 11.496 24.124C11.6851 24.2792 11.8831 24.4072 12.0789 24.5202ZM43.0947 23.6269C43.1819 23.4365 43.2786 23.2413 43.3914 23.0454C43.5044 22.8496 43.6324 22.6517 43.7877 22.4626C43.9422 22.2745 44.1261 22.0942 44.3346 21.9528C44.5423 21.8107 44.7727 21.7143 44.9832 21.6737C45.1944 21.6317 45.3818 21.6389 45.5354 21.6666C45.6121 21.6794 45.6814 21.698 45.7433 21.7184C45.8051 21.7375 45.8598 21.7607 45.9077 21.7826C46.0037 21.8259 46.0734 21.871 46.1201 21.9017C46.1665 21.9343 46.1902 21.9531 46.1902 21.9531L46.1127 21.9945L46.0684 22.0178C46.0237 22.0413 45.9683 22.0704 45.9061 22.1052C45.8638 22.1291 45.8183 22.1564 45.7714 22.1848C45.7245 22.2144 45.6765 22.2478 45.6287 22.2815C45.5339 22.3539 45.4427 22.4358 45.3709 22.5278C45.2981 22.6197 45.2447 22.7185 45.1966 22.8288C45.1486 22.9396 45.1039 23.0651 45.056 23.2115C45.0249 23.3046 44.9928 23.4058 44.9588 23.5132C44.8866 23.741 44.8056 23.9966 44.7072 24.2606C44.6347 24.4546 44.5535 24.6536 44.4622 24.8486L44.4443 24.8867L44.421 24.9338C44.4056 24.9649 44.3893 24.9963 44.3718 25.0271C44.3374 25.0886 44.3001 25.1496 44.2608 25.2094C44.2205 25.2686 44.1772 25.3267 44.1325 25.3832C44.0862 25.4392 44.0377 25.4932 43.9872 25.5452C43.7839 25.7527 43.5377 25.9152 43.2913 26.0121C43.0445 26.1101 42.8023 26.1453 42.5923 26.1395C42.3813 26.1341 42.201 26.0907 42.0527 26.0349C41.9784 26.0075 41.9121 25.9733 41.8528 25.9427C41.7938 25.9097 41.742 25.8759 41.6968 25.8439C41.6069 25.7772 41.5436 25.7168 41.5032 25.6709C41.4828 25.6487 41.4683 25.6296 41.4587 25.6168L41.4446 25.5973L41.4668 25.5873L41.5296 25.5576L41.5683 25.5389C41.6176 25.5152 41.6791 25.4855 41.7486 25.4484C41.793 25.4261 41.8409 25.3999 41.8904 25.3713C41.9306 25.35 41.9722 25.324 42.014 25.2978L42.0429 25.2798C42.1461 25.214 42.2503 25.1387 42.3415 25.0562C42.4331 24.9738 42.5102 24.8855 42.5703 24.7968C42.6306 24.7075 42.6758 24.6191 42.7199 24.5225C42.7291 24.504 42.7374 24.4844 42.7458 24.4645L42.7528 24.448C42.7641 24.4224 42.7753 24.3964 42.7856 24.3686C42.7971 24.3416 42.8085 24.3137 42.819 24.284L42.8357 24.2394L42.8443 24.2168L42.8572 24.1845C42.9296 24.0035 43.0077 23.8177 43.0947 23.6269ZM45.359 25.062C45.2462 25.2579 45.1495 25.4531 45.0623 25.6435C44.9753 25.8342 44.8972 26.0201 44.8248 26.201L44.8119 26.2333L44.8033 26.256L44.7866 26.3005C44.7761 26.3302 44.7647 26.3582 44.7532 26.3851C44.7429 26.4129 44.7317 26.439 44.7204 26.4645C44.7181 26.47 44.7158 26.4755 44.7135 26.4809C44.705 26.5008 44.6967 26.5205 44.6875 26.539C44.6435 26.6357 44.5982 26.7241 44.5379 26.8134C44.4778 26.902 44.4008 26.9904 44.3091 27.0727C44.2179 27.1552 44.1137 27.2305 44.0105 27.2963L43.9817 27.3143L43.9816 27.3144C43.9397 27.3406 43.8982 27.3666 43.858 27.3879C43.8085 27.4164 43.7607 27.4426 43.7162 27.465C43.6458 27.5026 43.5836 27.5325 43.534 27.5564L43.4972 27.5742L43.4344 27.6039L43.4122 27.6138L43.4264 27.6334C43.4359 27.6462 43.4504 27.6653 43.4708 27.6874C43.5112 27.7334 43.5745 27.7937 43.6644 27.8605C43.7096 27.8924 43.7614 27.9263 43.8204 27.9592C43.8797 27.9898 43.946 28.024 44.0203 28.0515C44.1686 28.1073 44.349 28.1507 44.5599 28.1561C44.7699 28.1619 45.0121 28.1267 45.2589 28.0287C45.5053 27.9318 45.7515 27.7693 45.9548 27.5618C46.0054 27.5098 46.0538 27.4558 46.1001 27.3998C46.1448 27.3432 46.1881 27.2851 46.2284 27.226C46.2677 27.1661 46.305 27.1052 46.3394 27.0436C46.3569 27.0129 46.3732 26.9815 46.3886 26.9503L46.4119 26.9032L46.4298 26.8652C46.5211 26.6702 46.6023 26.4712 46.6748 26.2772C46.7732 26.0131 46.8542 25.7576 46.9264 25.5297L46.9264 25.5297C46.9604 25.4224 46.9925 25.3212 47.0236 25.2281C47.0715 25.0816 47.1162 24.9561 47.1642 24.8453C47.2123 24.735 47.2657 24.6362 47.3385 24.5444C47.4103 24.4523 47.5015 24.3705 47.5963 24.2981C47.6441 24.2643 47.6921 24.2309 47.739 24.2014C47.786 24.173 47.8314 24.1456 47.8737 24.1217C47.9359 24.087 47.9912 24.0579 48.0359 24.0344L48.0361 24.0344L48.0803 24.011L48.1579 23.9697C48.1579 23.9697 48.1342 23.9509 48.0878 23.9183C48.0411 23.8876 47.9714 23.8425 47.8754 23.7992C47.8274 23.7773 47.7727 23.7541 47.7109 23.735C47.6491 23.7146 47.5798 23.696 47.5031 23.6832C47.3495 23.6555 47.162 23.6483 46.9508 23.6903C46.7403 23.7308 46.51 23.8273 46.3022 23.9694C46.0937 24.1108 45.9099 24.2911 45.7554 24.4792C45.6001 24.6683 45.4721 24.8663 45.359 25.062ZM47.0303 27.6604C47.1175 27.47 47.2142 27.2747 47.327 27.0789C47.44 26.8831 47.568 26.6851 47.7233 26.496C47.8778 26.3079 48.0616 26.1276 48.2701 25.9862C48.4779 25.8441 48.7082 25.7476 48.9187 25.7071C49.1299 25.6651 49.3174 25.6722 49.471 25.7C49.5477 25.7128 49.617 25.7314 49.6789 25.7518C49.7407 25.7709 49.7953 25.7941 49.8433 25.816C49.9393 25.8594 50.009 25.9044 50.0557 25.9351C50.1022 25.9677 50.1258 25.9866 50.1258 25.9866L50.0483 26.0279C50.035 26.035 50.0202 26.0428 50.004 26.0513C49.9592 26.0748 49.9039 26.1039 49.8417 26.1386C49.7994 26.1625 49.754 26.1899 49.707 26.2183C49.6601 26.2478 49.6121 26.2812 49.5643 26.315C49.4695 26.3874 49.3783 26.4692 49.3065 26.5613C49.2337 26.6531 49.1803 26.7519 49.1322 26.8622C49.0842 26.973 49.0396 27.0985 48.9916 27.245C48.9605 27.3381 48.9284 27.4393 48.8944 27.5466C48.8222 27.7745 48.7412 28.03 48.6428 28.2941C48.5703 28.488 48.4891 28.6871 48.3978 28.8821L48.3799 28.9201L48.3566 28.9672C48.3412 28.9984 48.3249 29.0297 48.3074 29.0605C48.273 29.1221 48.2357 29.183 48.1964 29.2429C48.1561 29.302 48.1128 29.3601 48.0681 29.4167C48.0218 29.4727 47.9734 29.5267 47.9228 29.5787C47.7195 29.7862 47.4733 29.9486 47.2269 30.0456C46.9801 30.1436 46.7379 30.1788 46.5279 30.173C46.317 30.1676 46.1366 30.1241 45.9883 30.0684C45.914 30.0409 45.8477 30.0067 45.7885 29.9761C45.7294 29.9432 45.6776 29.9093 45.6324 29.8774C45.5425 29.8106 45.4792 29.7502 45.4388 29.7043C45.4184 29.6822 45.4039 29.6631 45.3944 29.6503L45.3802 29.6307L45.4024 29.6208L45.4652 29.5911C45.477 29.5853 45.49 29.5791 45.5039 29.5724C45.5531 29.5486 45.6147 29.519 45.6842 29.4819C45.7286 29.4595 45.7765 29.4333 45.826 29.4048C45.8662 29.3834 45.9078 29.3575 45.9496 29.3313C45.9593 29.3252 45.9689 29.3192 45.9785 29.3132C46.0817 29.2474 46.1859 29.1721 46.2771 29.0896C46.3688 29.0072 46.4458 28.9189 46.5059 28.8302C46.5662 28.741 46.6115 28.6526 46.6555 28.5559C46.6672 28.5323 46.6775 28.5069 46.6884 28.4814C46.6997 28.4559 46.7109 28.4298 46.7212 28.402C46.7327 28.3751 46.7441 28.3471 46.7546 28.3174L46.7713 28.2729L46.7799 28.2502L46.7928 28.2179C46.8652 28.037 46.9433 27.8511 47.0303 27.6604Z" fill="#359CDF"/>
</svg>
